# xmcd CD database file
#
# Track frame offsets:
#	150
#	19295
#	41230
#	62123
#	79287
#	97361
#	114134
#	131546
#	148746
#	162949
#	178437
#	206035
#
# Disc length: 3146 seconds
#
# Revision: 0
# Processed by: cddbd v1.4PL0 Copyright (c) Steve Scherf et al.
# Submitted via: CDex 1.50beta9
#
DISCID=b80c480c
DTITLE=Nathalie Renault - Creuser des océans
DYEAR=2002
DGENRE=Jazz
TTITLE0=La faiseuse de chansons
TTITLE1=Liberté
TTITLE2=Creuser des océans
TTITLE3=Blues á Fred
TTITLE4=La chute
TTITLE5=Par en-dedans
TTITLE6=Chanter
TTITLE7=Be for real
TTITLE8=La fille des chansons
TTITLE9=Ta derniére journée
TTITLE10=Parti
TTITLE11=My foolish heart
EXTD=YEAR: 2002
EXTT0=
EXTT1=
EXTT2=
EXTT3=
EXTT4=
EXTT5=
EXTT6=
EXTT7=
EXTT8=
EXTT9=
EXTT10=
EXTT11=
PLAYORDER=
